<svg xmlns="http://www.w3.org/2000/svg" width="32" height="32" viewBox="0 0 32 32"><g transform="translate(0 -1020.362)"><path style="line-height:normal;text-indent:0;text-align:start;text-decoration-line:none;text-decoration-style:solid;text-decoration-color:#000;text-transform:none;block-progression:tb;isolation:auto;mix-blend-mode:normal" fill="#f05542" fill-rule="evenodd" d="M15.601562 1034.3613a.50005.50005 0 1 0 0 1l10.796876 0a.50005.50005 0 1 0 0-1l-10.796876 0zM13.695312 1028.377a.50005.50005 0 1 0 0 1l14.796876 0a.50005.50005 0 1 0 0-1l-14.796876 0z" color="#000" font-family="sans-serif" font-weight="400" overflow="visible" white-space="normal"/><path style="line-height:normal;text-indent:0;text-align:start;text-decoration-line:none;text-decoration-style:solid;text-decoration-color:#000;text-transform:none;block-progression:tb;isolation:auto;mix-blend-mode:normal" fill="#2b4255" d="m 2.5078125,1022.3691 a 0.50004994,0.50004994 0 1 0 0,1 l 2.1074219,0 0.9824218,0 4.9531248,20.6211 a 0.50004994,0.50004994 0 0 0 0.486328,0.3828 l 12.472657,0 a 0.50004994,0.50004994 0 1 0 0,-1 l -12.078125,0 -4.9550785,-20.621 a 0.50004994,0.50004994 0 0 0 -0.4863281,-0.3829 l -1.375,0 -2.1074219,0 z" color="#000" font-family="sans-serif" font-weight="400" overflow="visible" white-space="normal"/><path style="line-height:normal;text-indent:0;text-align:start;text-decoration-line:none;text-decoration-style:solid;text-decoration-color:#000;text-transform:none;block-progression:tb;isolation:auto;mix-blend-mode:normal" fill="#2b4255" d="M11.5 1043.3613c-1.9267186 0-3.4980452 1.5728-3.4980469 3.5.0000017 1.9273 1.5713283 3.5 3.4980469 3.5 1.926719 0 3.499998-1.5727 3.5-3.5-.000002-1.9272-1.573281-3.5-3.5-3.5zm0 1c1.386033 0 2.499999 1.113 2.5 2.5-.000001 1.3871-1.113967 2.5-2.5 2.5-1.386033 0-2.4980457-1.1129-2.4980469-2.5.0000012-1.387 1.1120139-2.5 2.4980469-2.5zM23.5 1043.3613c-1.926719 0-3.498045 1.5728-3.498047 3.5.000002 1.9273 1.571328 3.5 3.498047 3.5 1.926719 0 3.499998-1.5727 3.5-3.5-.000002-1.9272-1.573281-3.5-3.5-3.5zm0 1c1.386033 0 2.499999 1.113 2.5 2.5-.000001 1.3871-1.113967 2.5-2.5 2.5-1.386033 0-2.498046-1.1129-2.498047-2.5.000001-1.387 1.112014-2.5 2.498047-2.5z" color="#000" font-family="sans-serif" font-weight="400" overflow="visible" white-space="normal"/><path style="line-height:normal;text-indent:0;text-align:start;text-decoration-line:none;text-decoration-style:solid;text-decoration-color:#000;text-transform:none;block-progression:tb;isolation:auto;mix-blend-mode:normal" fill="#f05542" fill-rule="evenodd" d="m 14.550781,1031.3477 a 0.50064426,0.50064426 0 0 0 0.05078,1 l 12.796876,0 a 0.50005,0.50005 0 1 0 0,-1 l -12.796876,0 a 0.50005,0.50005 0 0 0 -0.05078,0 z" color="#000" font-family="sans-serif" font-weight="400" overflow="visible" white-space="normal"/><path style="line-height:normal;text-indent:0;text-align:start;text-decoration-line:none;text-decoration-style:solid;text-decoration-color:#000;text-transform:none;block-progression:tb;isolation:auto;mix-blend-mode:normal" fill="#2b4255" d="M 5.9648438 2.0019531 A 0.50004994 0.50004994 0 0 0 5.5039062 2.625 L 6.2089844 5.5566406 A 0.50004994 0.50004994 0 0 0 6.6757812 5.9394531 L 7.6699219 5.9785156 A 0.50004994 0.50004994 0 0 0 7.6914062 5.9785156 L 13 5.9785156 L 13 4.9785156 L 7.7011719 4.9785156 L 7.09375 4.9550781 L 6.4765625 2.390625 A 0.50004994 0.50004994 0 0 0 5.9648438 2.0019531 z M 14 4.9785156 L 14 5.9785156 L 16 5.9785156 L 16 4.9785156 L 14 4.9785156 z M 18 4.9785156 L 18 5.9785156 L 28.810547 5.9785156 L 25.238281 16.988281 L 10.085938 16.988281 A 0.50004994 0.50004994 0 0 0 9.9257812 17.011719 L 9.46875 17.164062 A 0.50004994 0.50004994 0 0 0 9.140625 17.755859 L 10.550781 23.626953 A 0.50004994 0.50004994 0 0 0 11.037109 24.009766 L 23.509766 24.009766 A 0.50004994 0.50004994 0 1 0 23.509766 23.009766 L 11.431641 23.009766 L 10.224609 17.986328 L 25.601562 17.986328 A 0.50004994 0.50004994 0 0 0 26.076172 17.640625 L 29.974609 5.6328125 A 0.50004994 0.50004994 0 0 0 29.5 4.9785156 L 18 4.9785156 z " color="#000" font-family="sans-serif" font-weight="400" overflow="visible" transform="translate(0 1020.362)" white-space="normal"/><path style="line-height:normal;text-indent:0;text-align:start;text-decoration-line:none;text-decoration-style:solid;text-decoration-color:#000;text-transform:none;block-progression:tb;isolation:auto;mix-blend-mode:normal" fill="#f05542" d="M11.5 1045.3633c-.822394 0-1.499956.6776-1.5 1.5-.0000383.8224.677549 1.498 1.5 1.498.82245 0 1.500038-.6756 1.5-1.498-.000044-.8224-.677607-1.5-1.5-1.5zm0 1c.281972 0 .499985.218.5.5.000013.282-.218006.498-.5.498-.281994 0-.500013-.216-.5-.498.000015-.282.218028-.5.5-.5zM23.5 1045.3633c-.822393 0-1.498003.6776-1.498047 1.5-.000038.8224.675597 1.498 1.498047 1.498.822451 0 1.500038-.6756 1.5-1.498-.000044-.8224-.677606-1.5-1.5-1.5zm0 1c.281972 0 .499985.218.5.5.000013.282-.218006.498-.5.498-.281994 0-.49806-.216-.498047-.498.000015-.282.216075-.5.498047-.5z" color="#000" font-family="sans-serif" font-weight="400" overflow="visible" white-space="normal"/></g></svg>